# MoveMusic Save Editor — OBJ export
# Units: 1 unit = 1 cm  (Blender import: set Scale to 0.01)
mtllib test_export.mtl

o HZ1
usemtl mat_0
v -7.5000 -7.5000 -1.2500
v 7.5000 -7.5000 -1.2500
v 7.5000 7.5000 -1.2500
v -7.5000 7.5000 -1.2500
v -7.5000 -7.5000 1.2500
v 7.5000 -7.5000 1.2500
v 7.5000 7.5000 1.2500
v -7.5000 7.5000 1.2500
vn 0.0000 0.0000 -1.0000
vn 0.0000 0.0000 1.0000
vn 0.0000 -1.0000 0.0000
vn 0.0000 1.0000 0.0000
vn -1.0000 0.0000 0.0000
vn 1.0000 0.0000 0.0000
f 4//1 3//1 2//1
f 4//1 2//1 1//1
f 5//2 6//2 7//2
f 5//2 7//2 8//2
f 1//3 2//3 6//3
f 1//3 6//3 5//3
f 8//4 7//4 3//4
f 8//4 3//4 4//4
f 5//5 8//5 4//5
f 5//5 4//5 1//5
f 2//6 3//6 7//6
f 2//6 7//6 6//6

